HIERARCHY
ROOT Hips
{
	OFFSET -0.001795 -0.223333 0.028219
	CHANNELS 6 Xposition Yposition Zposition Zrotation Yrotation Xrotation 
	JOINT LeftUpLeg
	{
		OFFSET 0.069520 -0.091406 -0.006815
		CHANNELS 3 Zrotation Yrotation Xrotation
		JOINT LeftLeg
		{
			OFFSET 0.034277 -0.375199 -0.004496
			CHANNELS 3 Zrotation Yrotation Xrotation
			JOINT LeftFoot
			{
				OFFSET -0.013596 -0.397961 -0.043693
				CHANNELS 3 Zrotation Yrotation Xrotation
				JOINT LeftToe
				{
					OFFSET 0.026358 -0.055791 0.119288
					CHANNELS 3 Zrotation Yrotation Xrotation
					End Site
					{
						OFFSET 0.000000 0.000000 0.000000
					}
				}
			}
		}
	}
	JOINT RightUpLeg
	{
		OFFSET -0.067670 -0.090522 -0.004320
		CHANNELS 3 Zrotation Yrotation Xrotation
		JOINT RightLeg
		{
			OFFSET -0.038290 -0.382569 -0.008850
			CHANNELS 3 Zrotation Yrotation Xrotation
			JOINT RightFoot
			{
				OFFSET 0.015774 -0.398415 -0.042312
				CHANNELS 3 Zrotation Yrotation Xrotation
				JOINT RightToe
				{
					OFFSET -0.025372 -0.048144 0.123348
					CHANNELS 3 Zrotation Yrotation Xrotation
					End Site
					{
						OFFSET 0.000000 0.000000 0.000000
					}
				}
			}
		}
	}
	JOINT Spine
	{
		OFFSET -0.002533 0.108963 -0.026696
		CHANNELS 3 Zrotation Yrotation Xrotation
		JOINT Spine1
		{
			OFFSET 0.005487 0.135180 0.001092
			CHANNELS 3 Zrotation Yrotation Xrotation
			JOINT Spine2
			{
				OFFSET 0.001457 0.052922 0.025425
				CHANNELS 3 Zrotation Yrotation Xrotation
				JOINT Neck
				{
					OFFSET -0.002778 0.213870 -0.042857
					CHANNELS 3 Zrotation Yrotation Xrotation
					JOINT Head
					{
						OFFSET 0.005152 0.064970 0.051349
						CHANNELS 3 Zrotation Yrotation Xrotation
						End Site
						{
							OFFSET 0.000000 0.000000 0.000000
						}
					}
				}
				JOINT LeftShoulder
				{
					OFFSET 0.078845 0.121749 -0.034090
					CHANNELS 3 Zrotation Yrotation Xrotation
					JOINT LeftArm
					{
						OFFSET 0.090977 0.030469 -0.008868
						CHANNELS 3 Zrotation Yrotation Xrotation
						JOINT LeftForeArm
						{
							OFFSET 0.259612 -0.012772 -0.027456
							CHANNELS 3 Zrotation Yrotation Xrotation
							JOINT LeftHand
							{
								OFFSET 0.249234 0.008986 -0.001171
								CHANNELS 3 Zrotation Yrotation Xrotation
								End Site
								{
									OFFSET 0.000000 0.000000 0.000000
								}
							}
						}
					}
				}
				JOINT RightShoulder
				{
					OFFSET -0.081759 0.118833 -0.038615
					CHANNELS 3 Zrotation Yrotation Xrotation
					JOINT RightArm
					{
						OFFSET -0.096012 0.032551 -0.009143
						CHANNELS 3 Zrotation Yrotation Xrotation
						JOINT RightForeArm
						{
							OFFSET -0.253742 -0.013329 -0.021401
							CHANNELS 3 Zrotation Yrotation Xrotation
							JOINT RightHand
							{
								OFFSET -0.255298 0.007772 -0.005559
								CHANNELS 3 Zrotation Yrotation Xrotation
								End Site
								{
									OFFSET 0.000000 0.000000 0.000000
								}
							}
						}
					}
				}
			}
		}
	}
}
MOTION
Frames: 16
Frame Time: 0.050000
0.000000 0.986078 0.000000 -0.731436 -0.901197 2.119667 5.669342 -0.351535 -6.461772 -7.209008 0.266056 -19.566579 47.026514 27.190382 107.191105 0.000000 0.000000 0.000000 0.338259 0.911343 -8.917198 2.930623 -0.486912 -14.668614 -36.262108 -23.825620 118.878655 0.000000 0.000000 0.000000 1.426716 -0.257410 4.423893 3.125116 1.436074 -53.075391 -2.208627 2.297773 55.118333 3.300799 3.131006 -87.199768 0.000000 0.000000 0.000000 -28.214450 -1.294372 0.469766 -37.974245 -14.100696 -5.677942 -6.590827 34.242573 -2.729851 0.000000 0.000000 0.000000 21.808968 -0.030483 0.460593 49.713742 10.975678 -6.975710 -4.394892 -39.857814 2.402619 0.000000 0.000000 0.000000 
0.000346 0.987185 -0.002014 -0.886339 -2.124644 2.749665 6.161761 -0.363000 -7.683010 -6.133967 0.405611 -18.316039 40.994522 26.177676 108.369524 0.000000 0.000000 0.000000 -0.055322 1.043291 -10.364557 3.895461 -0.426072 -14.003866 -34.920114 -23.161976 118.981624 0.000000 0.000000 0.000000 0.818314 -0.179239 3.438418 5.516835 1.389266 -50.061795 -2.656425 4.602360 51.605053 0.692025 3.128216 -84.431717 0.000000 0.000000 0.000000 -27.551662 -1.255492 -0.356582 -40.150983 -13.154555 -5.425130 -5.632144 35.509279 -2.610824 0.000000 0.000000 0.000000 22.023152 -0.846495 0.150556 51.859938 9.751515 -7.022491 -6.128784 -39.558548 3.145153 0.000000 0.000000 0.000000 
0.000675 0.988333 -0.004106 -0.590933 -2.812808 1.852916 5.288840 -0.391035 -7.658523 -5.824870 0.454862 -17.475907 58.411296 29.428146 108.295141 0.000000 0.000000 0.000000 -0.292206 1.007843 -10.130773 3.922824 -0.407766 -13.725522 -35.862960 -22.619818 120.482457 0.000000 0.000000 0.000000 1.464565 -0.187812 3.098824 1.757049 1.400100 -48.715732 -0.251338 2.691128 51.185300 -5.202028 3.602725 -84.781568 0.000000 0.000000 0.000000 -28.080242 -1.634110 0.607345 -41.013601 -13.576522 -5.553130 -3.840240 36.239547 -1.840352 0.000000 0.000000 0.000000 21.625323 0.654091 0.491140 50.553389 9.758205 -6.801208 -1.929748 -44.477186 1.554621 0.000000 0.000000 0.000000 
0.000899 0.988124 -0.006649 -0.626104 -4.112829 2.253315 5.808122 -0.378794 -8.657634 -5.800467 0.507605 -17.979030 66.056751 30.033899 110.989923 0.000000 0.000000 0.000000 0.262363 1.153736 -11.149937 4.096890 -0.365320 -13.757426 -41.009160 -22.673219 120.910015 0.000000 0.000000 0.000000 1.569850 -0.113331 1.600516 2.197854 1.407965 -47.109278 -0.268429 3.460634 50.761593 -3.334036 3.533165 -83.788960 0.000000 0.000000 0.000000 -28.848675 0.113766 -0.559796 -41.425558 -11.636806 -6.142431 -1.577777 36.435034 -1.117289 0.000000 0.000000 0.000000 22.899936 0.697141 0.377369 49.756705 10.215285 -6.493218 -1.994548 -48.677933 1.779783 0.000000 0.000000 0.000000 
0.000962 0.988827 -0.009631 -0.686277 -3.416286 2.314901 5.488081 -0.428335 -9.033409 -5.121128 0.503237 -17.553529 64.237063 30.069206 109.755358 0.000000 0.000000 0.000000 0.243904 1.136174 -11.023530 4.219351 -0.377744 -14.464577 -41.840417 -22.967651 121.259495 0.000000 0.000000 0.000000 1.755260 -0.127655 1.752574 1.448453 1.379992 -47.263048 0.181673 2.564870 50.887953 -5.167095 3.654674 -84.427539 0.000000 0.000000 0.000000 -29.530535 0.597766 -0.813507 -41.027159 -10.782829 -6.440469 -0.347505 39.526490 -0.693413 0.000000 0.000000 0.000000 23.028721 0.246249 0.038048 49.454122 9.387587 -6.853487 1.122691 -55.301480 0.530878 0.000000 0.000000 0.000000 
0.000756 0.989649 -0.013574 -0.513059 -3.544634 2.913328 5.554144 -0.451204 -9.626959 -4.935754 0.515078 -17.650326 61.486922 29.775682 109.414567 0.000000 0.000000 0.000000 -0.098221 1.192646 -11.752933 4.742139 -0.357220 -14.426915 -41.953679 -23.419104 119.802268 0.000000 0.000000 0.000000 1.641146 -0.147650 2.120512 1.789045 1.504785 -49.160832 0.025279 2.388089 52.547196 -5.477448 3.688069 -84.567535 0.000000 0.000000 0.000000 -30.029355 2.224493 -1.784033 -41.327200 -8.475915 -7.408987 2.478725 42.835400 0.490058 0.000000 0.000000 0.000000 22.980692 -0.978267 -0.726440 50.463405 8.700329 -7.438963 3.339425 -65.553341 -0.246789 0.000000 0.000000 0.000000 
0.000277 0.989868 -0.017855 -0.403802 -2.801246 3.217694 5.384491 -0.522841 -10.697312 -4.706809 0.493790 -17.040738 60.250391 29.484228 109.113601 0.000000 0.000000 0.000000 -0.204874 1.281630 -12.714682 4.423047 -0.393941 -13.918477 -41.597031 -23.416255 120.647887 0.000000 0.000000 0.000000 1.407286 -0.154818 2.391382 1.226276 1.486268 -50.068725 0.034060 1.502989 53.463658 -6.637134 3.752880 -85.978075 0.000000 0.000000 0.000000 -30.573788 3.240150 -2.334905 -41.585747 -6.543386 -8.226865 10.731933 50.626189 4.969551 0.000000 0.000000 0.000000 23.053023 -1.157478 -0.885413 50.766622 7.213647 -8.200431 15.782785 -76.545007 -9.773681 0.000000 0.000000 0.000000 
-0.000208 0.989495 -0.021488 -0.521388 -2.539794 3.957732 5.626576 -0.551280 -11.642404 -4.513810 0.490869 -17.018529 58.662203 29.284642 108.774266 0.000000 0.000000 0.000000 0.145214 1.432265 -13.885084 4.167795 -0.409989 -13.198218 -41.809932 -23.965150 119.347168 0.000000 0.000000 0.000000 1.306661 -0.127888 1.890214 1.446992 1.518679 -51.099735 -0.179679 1.418654 54.997839 -5.627454 3.661401 -86.531744 0.000000 0.000000 0.000000 -29.920615 4.272595 -2.894813 -43.105688 -4.821486 -9.244945 23.865080 61.840183 15.180911 0.000000 0.000000 0.000000 22.828403 -2.475554 -1.576638 51.058549 5.604520 -9.118164 58.208259 -85.234938 -50.455570 0.000000 0.000000 0.000000 
-0.000558 0.989546 -0.023908 -0.452948 -2.382988 4.180988 5.653001 -0.584278 -12.451958 -4.069338 0.493627 -16.007801 55.892827 28.881166 108.432735 0.000000 0.000000 0.000000 0.425048 1.564845 -14.882065 3.613199 -0.422636 -12.573144 -43.078689 -23.876503 120.440077 0.000000 0.000000 0.000000 0.994042 -0.114545 1.849493 1.485474 1.523771 -51.512554 -0.426072 1.123836 55.428406 -5.916493 3.695004 -87.164341 0.000000 0.000000 0.000000 -29.902946 5.268808 -3.448171 -44.258396 -3.957874 -9.844884 54.189141 72.764404 43.422647 0.000000 0.000000 0.000000 22.289478 -3.222255 -2.039419 51.267001 2.714463 -10.342186 138.659382 -84.570872 -130.768705 0.000000 0.000000 0.000000 
-0.000597 0.989882 -0.025361 -0.563560 -1.931579 4.452781 5.780560 -0.596854 -12.761255 -3.858797 0.483909 -15.777843 53.660349 28.788607 107.233033 0.000000 0.000000 0.000000 0.665324 1.647052 -15.462774 3.409707 -0.434320 -12.420229 -44.175394 -24.027863 121.017085 0.000000 0.000000 0.000000 0.866606 -0.076822 1.161346 1.435060 1.462384 -51.451001 -0.765493 0.562053 55.701500 -4.842598 3.695287 -86.776589 0.000000 0.000000 0.000000 -29.399285 5.924202 -3.684597 -46.780502 -2.758022 -10.796660 97.197121 75.231352 86.194665 0.000000 0.000000 0.000000 21.812317 -3.902064 -2.477894 51.801032 0.159887 -11.472404 158.955081 -79.616073 -150.369365 0.000000 0.000000 0.000000 
-0.000567 0.990029 -0.026301 -0.557371 -2.038054 4.430860 5.782920 -0.591742 -12.718768 -3.714457 0.487943 -15.472082 52.356761 28.867376 106.347511 0.000000 0.000000 0.000000 0.747700 1.686247 -15.721387 3.259740 -0.433042 -12.362535 -44.583003 -23.801037 121.754185 0.000000 0.000000 0.000000 0.863964 -0.065657 0.936874 1.223099 1.457891 -51.148645 -0.807555 0.444156 55.406411 -5.121587 3.738523 -86.047258 0.000000 0.000000 0.000000 -29.633384 5.967755 -3.675594 -47.494984 -2.598682 -10.971553 118.797999 75.340995 109.653733 0.000000 0.000000 0.000000 22.000329 -3.941861 -2.589800 52.224124 -1.290413 -12.079035 156.634148 -75.940216 -145.816487 0.000000 0.000000 0.000000 
-0.000405 0.990637 -0.027009 -0.439075 -2.623750 4.570767 5.608997 -0.598771 -12.783094 -3.396603 0.508671 -15.295600 51.439533 28.926552 106.100416 0.000000 0.000000 0.000000 0.760261 1.765848 -16.329112 3.355015 -0.417767 -11.951719 -45.700415 -23.733178 121.731738 0.000000 0.000000 0.000000 0.724494 -0.042338 0.538459 1.386024 1.498964 -50.683462 -0.803284 0.501406 54.606230 -4.891458 3.786709 -84.718743 0.000000 0.000000 0.000000 -29.564142 5.276512 -3.070741 -48.316270 -2.155420 -11.191424 126.841170 78.049257 121.345725 0.000000 0.000000 0.000000 21.485551 -3.931403 -2.679750 53.551246 -2.471914 -12.684978 149.272835 -73.602552 -135.270266 0.000000 0.000000 0.000000 
-0.000213 0.990940 -0.027748 -0.400359 -3.184811 4.689960 5.530749 -0.586334 -12.571057 -3.222476 0.527988 -15.379729 50.649226 29.180963 105.253680 0.000000 0.000000 0.000000 0.933757 1.842248 -16.743432 3.436945 -0.403549 -11.327399 -46.539623 -24.087864 120.396388 0.000000 0.000000 0.000000 0.492221 -0.018088 0.161455 1.850559 1.545841 -50.376044 -1.201180 0.330126 54.090458 -3.986815 3.802686 -83.888822 0.000000 0.000000 0.000000 -30.150222 4.957242 -2.686046 -48.337695 -3.259171 -10.778674 130.339361 82.902794 129.337677 0.000000 0.000000 0.000000 21.324475 -3.650295 -2.720561 54.260194 -2.711485 -12.825777 142.687901 -71.937165 -126.133698 0.000000 0.000000 0.000000 
0.000126 0.990806 -0.028416 -0.246423 -3.583012 4.676600 5.438521 -0.581003 -12.425785 -3.223819 0.537239 -15.306196 49.966220 29.280285 104.795352 0.000000 0.000000 0.000000 1.033930 1.900109 -17.074297 3.217558 -0.394907 -10.821294 -47.263076 -24.193882 119.963597 0.000000 0.000000 0.000000 0.512840 -0.015221 0.093571 1.855671 1.583912 -50.353068 -1.622664 0.159881 53.951805 -3.538257 3.824356 -83.347289 0.000000 0.000000 0.000000 -30.101922 3.887627 -1.696030 -48.701287 -4.058014 -10.584480 149.212506 87.605061 152.629777 0.000000 0.000000 0.000000 20.956477 -3.261956 -2.619669 55.632893 -2.563198 -13.007105 137.458129 -70.189767 -118.103856 0.000000 0.000000 0.000000 
0.000733 0.990522 -0.028716 -0.093238 -4.372524 4.790307 5.322952 -0.566935 -12.159408 -3.092602 0.562294 -15.436515 49.151522 29.442194 104.331357 0.000000 0.000000 0.000000 0.651852 1.892723 -17.253430 3.668893 -0.379515 -10.613309 -46.385926 -24.108177 119.033247 0.000000 0.000000 0.000000 0.378737 -0.011984 0.103010 1.988614 1.678031 -50.432128 -1.804437 0.294500 53.593660 -2.737255 3.799251 -83.069965 0.000000 0.000000 0.000000 -30.272947 3.345959 -1.177294 -48.365644 -4.835298 -10.228042 -123.368888 86.948788 -116.192477 0.000000 0.000000 0.000000 20.525545 -3.195414 -2.693746 56.139862 -3.029873 -13.254503 136.116340 -68.901445 -115.577850 0.000000 0.000000 0.000000 
0.001573 0.989639 -0.028495 -0.114788 -4.923712 5.000811 5.462276 -0.532662 -11.832581 -3.208058 0.583573 -15.853573 48.709441 29.644551 103.748684 0.000000 0.000000 0.000000 0.321347 1.860096 -17.203981 4.029616 -0.366044 -10.914507 -44.696494 -23.810504 118.588925 0.000000 0.000000 0.000000 0.579482 -0.005666 -0.138836 1.950165 1.730184 -50.384502 -2.051721 0.586879 53.542298 -2.268408 3.751402 -82.651993 0.000000 0.000000 0.000000 -29.465402 3.131080 -0.925080 -48.579506 -4.933205 -10.222185 -135.669359 83.920664 -126.298176 0.000000 0.000000 0.000000 20.806927 -3.422423 -2.928395 55.652448 -3.594127 -13.372039 137.346194 -67.276651 -115.943452 0.000000 0.000000 0.000000 
